<svg version="1.1" height="80" viewBox="0 0 172 58" fill="#ffffff"
  xmlns="http://www.w3.org/2000/svg">
  <path
    d="M98.3,3.4c-1.9,0-3.4,1.5-3.4,3.4s1.5,3.4,3.4,3.4s3.4-1.5,3.4-3.4C101.7,5,100.2,3.4,98.3,3.4"></path>
  <path
    d="M81,28.3c-3.7-1-7.3-2.2-7.3-5.1c0-2.5,2.3-3.8,5.1-3.8c2.8,0,5,0.9,7.3,3.1c0.6,0.6,1.2,0.5,1.8-0.1
l1.3-1.5c0.4-0.4,0.4-0.9,0.1-1.3c-2.7-3.2-6.3-4.4-10.3-4.4c-5.4,0-10.1,3-10.1,8.2c0,5.3,4.6,7.5,9.1,8.6c5.2,1.3,8,2.5,8,5.8
c0,2.3-2,4.2-6.1,4.2c-3.5,0-6.1-1.8-8.2-5.2c-0.3-0.5-0.9-0.6-1.4-0.3L68,37.8c-0.6,0.4-0.7,1.1-0.4,1.6
c2.8,4.6,6.7,6.8,12.1,6.8c7.2,0,11.3-4.3,11.3-8.9C90.8,32,86.3,29.8,81,28.3"></path>
  <path
    d="M99.8,15.8h-3c-0.6,0-0.9,0.3-0.9,0.9v28c0,0.6,0.3,0.9,0.9,0.9h3c0.6,0,0.9-0.3,0.9-0.9v-28
C100.7,16.1,100.5,15.8,99.8,15.8"></path>
  <path
    d="M133.3,0h-3c-0.6,0-0.9,0.3-0.9,0.9v17.9c-1.6-1.9-5.2-3.5-8.7-3.5c-8.8,0-14.8,6-14.8,15.5
c0,10.1,5.6,15.5,13.8,15.5c4.4,0,7.6-1.6,9.7-3.5l0.6,2c0.2,0.6,0.6,0.9,1.3,0.9h2c0.6,0,0.9-0.3,0.9-0.9V0.9
C134.2,0.3,134,0,133.3,0 M129.4,33.2c0,5.3-3.9,8.9-9,8.9c-6.1,0-9.5-4.7-9.5-11.3c0-7.1,4.2-11.4,9.6-11.4
c4.4,0,8.9,3.4,8.9,8.2V33.2z"></path>
  <path
    d="M154.4,15.2c-7.8,0-15.1,6.1-15.1,15.5c0,10,7.4,15.5,15.5,15.5c4.9,0,8.9-1.6,12.4-5.2
c0.5-0.5,0.5-1,0.1-1.5l-1.6-1.6c-0.5-0.5-1-0.5-1.5,0c-2.2,2.5-5,4.1-9.3,4.1c-5.8,0-10-4-10.4-9.9H168c0.6,0,0.9-0.4,0.9-0.9
v-1.6C168.8,22.2,163.1,15.2,154.4,15.2 M144.6,28.2c0.9-5.4,4.5-8.9,9.9-8.9c5.3,0,9,4.2,9.2,8.9H144.6z"></path>
  <path
    d="M47.4,11.9c-0.2-0.4-0.5-0.7-0.9-0.9L28.4,3.6c-0.4-0.2-0.8-0.2-1.2,0L9,11.1c-0.4,0.2-0.7,0.5-0.9,0.9
L0.6,30.1c-0.2,0.4-0.2,0.8,0,1.2l7.5,18.1c0.2,0.4,0.5,0.7,0.9,0.9l18.2,7.5c0.4,0.2,0.8,0.2,1.2,0l18.1-7.5
c0.4-0.2,0.7-0.5,0.9-0.9l7.5-18.2c0.2-0.4,0.2-0.8,0-1.2L47.4,11.9z M45.7,12.5V21L31.3,6.6L45.7,12.5z M45.7,23.3v14.9
L35.2,48.7H20.3L9.8,38.1V23.3l10.5-10.5h14.9L45.7,23.3z M27.6,5.2l6,6H13.2L27.6,5.2z M8.2,45.3l-6-14.4l6-6V45.3z M3.6,27.2
l6-14.4H18L3.6,27.2z M9.8,48.9v-8.4l14.4,14.4L9.8,48.9z M28,56.3l-6-6h20.3L28,56.3z M46,48.7h-8.4L52,34.3L46,48.7z
M47.3,36.5V16.1l6,14.4L47.3,36.5z"></path>
  <path
    d="M168.7,12.5c-1.5,0-2.8,1.3-2.8,2.8c0,1.5,1.2,2.8,2.8,2.8c1.5,0,2.8-1.3,2.8-2.8S170.3,12.5,168.7,12.5
M168.7,17.6c-1.3,0-2.3-1-2.3-2.3s1-2.3,2.3-2.3s2.3,1,2.3,2.3S170,17.6,168.7,17.6"></path>
  <path
    d="M169.8,14.9c0-0.5-0.3-0.9-0.9-0.9h-1.1v2.7h0.5v-1h0.2l0.7,1h0.6l-0.7-1C169.6,15.7,169.8,15.4,169.8,14.9
M168.8,15.3h-0.5v-0.8h0.5c0.3,0,0.4,0.2,0.4,0.4C169.3,15.1,169.2,15.3,168.8,15.3"></path>
</svg>
